<svg id="Layer_1" data-name="Layer 1" xmlns="http://www.w3.org/2000/svg" viewBox="0 0 292 259"><title>vacuna</title><path d="M27.57,239c-.73-7.47,2.14-13.27,7.5-18.44,9.35-9,18.27-18.49,27.45-27.69,2.4-2.41,3-4.57,1.42-7.9-3.07-6.38-5.57-13-8.28-19.6-4.6-11.08-4.25-12.56,4-20.8,20.46-20.33,41-40.57,61.24-61.13,10.66-10.83,10.4-8.53,0-19.69-2.49-2.68-5.25-5.12-7.55-7.94a11.91,11.91,0,0,1,.07-15.65c3.7-4,9.68-4.34,15-.6a48.23,48.23,0,0,1,5.93,5.24q46.77,46.73,93.5,93.5c1.14,1.15,2.3,2.3,3.36,3.53,4.49,5.21,4.64,11.66.41,15.92s-11,4.56-16.06.24-9.56-8.79-14.22-13.32c-2.73-2.66-4.57-2.56-7.46.36-20.46,20.74-41.15,41.25-61.8,61.8-3.31,3.28-6.8,6.38-10.27,9.51-3.75,3.39-7.88,2.45-12,.8-7.7-3.11-15.55-5.93-23-9.56-3.9-1.9-6.22-1-8.9,1.67q-17,17-34.18,33.89c-1.87,1.86-3.52,4.08-5.7,5.46s-4.88,2.68-7,2.23c-1.43-.31-2.5-3.62-3.14-5.77C27.4,243.15,27.67,241,27.57,239Zm77.56-101c4.76,5,9.31,9.91,13.9,14.73,3.25,3.41,3.21,6.66,0,10.16s-6.47,3.93-10.11,1c-2-1.66-4-3.4-5.9-5.22-10.75-10.32-10.74-10.34-20.12,1.19a6.93,6.93,0,0,0-.55,1.69c3.23,3.47,6.61,7.21,10.11,10.82,6.26,6.46,6.51,7.87,1.74,16.79,4,1.76,8.19,3.12,11.89,5.27,5.51,3.21,9.14,1.21,13.15-2.85,18-18.15,36.13-36.1,54.27-54.08,11.21-11.1,12.28-9-.2-20.77-2.77-2.62-5-3.06-8.11.06-3.75,3.74-8.2,4.06-12.27-.28-2.64-2.81-5.72-5.22-8.26-8.11-4.11-4.68-7.75-4-11.41.41-.9,1.09-1.89,2.12-2.82,3.19-1.8,2-2.56,3.55.31,5.87,3.91,3.17,7.15,7.18,10.6,10.9,4.39,4.73,4.32,7.9-.13,11.84S134.33,144,130,139.33a57.93,57.93,0,0,0-4.16-4.41C114.94,125.53,114.92,125.55,105.13,137.93Z"/><path d="M226.71,68.6c-7.32-6.8-14.05-12.93-20.62-19.22-2.65-2.53-4.28-2.29-6.81.49-4.91,5.39-10.46,10.19-15.61,15.37-4.17,4.19-7.51,2.28-10.89-1-3.58-3.48-8-7.29-3-12.17,6.4-6.21,13.66-11.54,20.66-17.34-4.23-5.05-6.45-7.58-8.53-10.21-3.89-4.91-4.11-10.18-.69-13.86s8.94-3.53,13.8.13a43.71,43.71,0,0,1,4.6,4q29,29.1,58,58.23l.85.87c5.4,5.65,6.56,11.62,3,15.65-3.37,3.84-10.12,3.85-15.91-1.24-4.59-4-7.56-3-11.17.77-4.37,4.53-9,8.81-13.47,13.23s-7.93,2.46-11.42-1.22-7.46-6.93-2.36-12.18C213.29,82.63,219.29,76.32,226.71,68.6Z"/></svg>